<?xml version="1.0" standalone="no"?>
<!DOCTYPE svg PUBLIC "-//W3C//DTD SVG 20010904//EN"
 "http://www.w3.org/TR/2001/REC-SVG-20010904/DTD/svg10.dtd">
<svg version="1.0" xmlns="http://www.w3.org/2000/svg"
 width="2048.000000pt" height="2048.000000pt" viewBox="0 0 2048.000000 2048.000000"
 preserveAspectRatio="xMidYMid meet">

<g transform="translate(0.000000,2048.000000) scale(0.100000,-0.100000)"
fill="#F2F1EB" stroke="">
<path d="M10834 20455 c-231 -61 -393 -152 -547 -308 -153 -156 -264 -376
-296 -587 -8 -49 -12 -311 -14 -759 l-2 -684 -750 2 c-815 1 -1373 -10 -1640
-34 -646 -57 -1306 -195 -1923 -401 -2065 -689 -3803 -2199 -4781 -4153 -452
-903 -720 -1811 -830 -2821 -54 -492 -53 -345 -49 -3865 l3 -3290 28 -175 c87
-548 232 -975 472 -1396 538 -941 1425 -1613 2467 -1869 157 -39 447 -89 608
-105 58 -6 220 -10 360 -9 210 1 283 6 415 25 347 51 629 120 912 224 178 66
500 224 676 333 780 483 1364 1219 1652 2083 321 961 258 1994 -177 2914 -294
621 -790 1191 -1370 1573 -610 401 -1288 618 -2018 644 -262 9 -420 -18 -599
-103 -161 -76 -306 -194 -410 -334 -398 -535 -238 -1286 344 -1619 150 -86
300 -124 560 -141 215 -15 369 -41 504 -85 368 -123 688 -372 904 -705 78
-121 119 -208 171 -361 62 -184 88 -334 89 -529 2 -315 -45 -512 -197 -819
-70 -143 -71 -145 -71 -225 1 -68 5 -89 27 -132 57 -109 166 -171 282 -162
130 11 199 67 289 231 200 366 302 841 268 1242 -48 575 -260 1048 -646 1443
-197 203 -396 348 -638 466 -294 143 -509 198 -897 231 -102 9 -212 22 -244
31 -189 47 -328 207 -358 411 -22 153 27 297 141 413 137 140 265 168 618 139
667 -54 1279 -301 1818 -734 124 -99 354 -328 459 -456 418 -512 668 -1110
737 -1769 16 -145 15 -496 0 -660 -82 -842 -505 -1642 -1161 -2191 -482 -404
-1036 -652 -1665 -746 -97 -14 -185 -18 -460 -18 -307 0 -354 2 -485 23 -1020
163 -1880 756 -2384 1645 -247 435 -387 909 -416 1401 -13 231 -13 6091 0
6443 12 316 27 492 71 798 190 1335 749 2622 1601 3686 1365 1706 3363 2750
5528 2890 215 14 2143 19 2157 6 4 -5 8 -243 9 -530 1 -605 -1 -593 88 -683
67 -66 129 -88 230 -82 90 6 164 43 212 106 70 92 65 -22 67 1644 l2 1503 22
65 c58 171 215 309 388 341 93 17 402 -12 815 -77 1384 -219 2694 -733 3863
-1517 781 -523 1515 -1196 2116 -1942 1163 -1440 1874 -3159 2077 -5016 24
-222 25 -242 11 -321 -20 -115 -58 -189 -138 -269 -72 -73 -161 -122 -249
-139 -73 -14 -5362 -13 -5525 0 -348 30 -752 128 -1086 265 -217 89 -509 248
-704 383 -409 285 -810 713 -1060 1133 -273 459 -424 892 -501 1436 -25 173
-26 199 -30 863 -6 745 -5 737 -63 816 -16 21 -55 54 -86 73 -49 30 -68 35
-136 39 -74 4 -84 2 -144 -27 -74 -37 -127 -93 -149 -159 -23 -67 -23 -1327
-1 -1548 106 -1030 550 -1952 1286 -2670 203 -197 393 -348 704 -557 47 -33
85 -60 83 -60 -2 -1 -346 -1 -765 1 l-763 3 0 279 c0 300 -8 385 -46 519 -55
189 -151 347 -292 483 -187 180 -396 277 -665 309 -207 26 -465 -34 -663 -153
-207 -124 -372 -321 -458 -545 -63 -162 -68 -204 -73 -565 l-5 -327 -2311 -4
c-2512 -3 -2358 0 -2620 -57 -448 -98 -851 -325 -1172 -662 -339 -355 -549
-796 -617 -1298 -19 -140 -19 -4813 0 -4945 66 -458 237 -848 517 -1185 471
-566 1203 -877 1930 -821 349 27 754 150 866 261 96 95 114 227 49 349 -38 70
-86 110 -170 142 -75 29 -125 22 -290 -39 -240 -89 -369 -112 -625 -113 -353
0 -648 90 -950 289 -142 94 -357 309 -454 456 -175 264 -260 515 -281 829 -7
98 -10 938 -8 2372 l3 2220 3145 3 c1730 1 3164 0 3187 -3 40 -6 42 -7 87 -98
107 -215 266 -448 422 -617 249 -269 488 -448 809 -605 195 -96 350 -152 550
-200 236 -57 344 -70 590 -69 207 0 226 1 318 26 369 101 649 366 771 728 80
240 70 500 -29 749 -14 36 -25 71 -25 78 0 10 52 13 258 13 141 0 273 -3 292
-6 33 -5 38 -11 69 -80 65 -145 199 -355 335 -524 96 -121 321 -338 451 -436
353 -265 700 -420 1135 -508 226 -46 531 -59 693 -31 436 76 785 410 882 843
49 220 34 402 -51 637 -14 39 -28 78 -31 87 -5 16 65 17 1163 21 l1169 3 106
26 c542 134 945 504 1104 1011 48 156 67 268 71 442 3 82 8 152 12 156 4 3 36
16 72 28 307 107 559 371 663 696 66 206 71 348 23 710 -84 642 -181 1123
-333 1650 -625 2171 -1957 4086 -3768 5415 -1343 985 -2873 1621 -4512 1876
-347 54 -563 77 -743 80 -148 3 -174 1 -256 -21z m-1324 -8885 c178 -29 336
-160 403 -337 22 -58 22 -59 28 -993 l5 -935 28 -100 c52 -189 141 -347 274
-487 201 -210 424 -312 743 -338 205 -17 308 -58 409 -166 118 -127 165 -294
125 -447 -46 -176 -176 -316 -342 -367 -166 -51 -560 -3 -857 105 -420 152
-785 440 -1037 819 -164 246 -260 489 -322 811 -20 106 -21 142 -24 1035 -3
663 -1 944 8 993 17 102 66 191 148 270 76 74 143 110 243 132 79 17 88 17
168 5z m-1169 -1970 c6 -298 11 -400 26 -497 l20 -123 -3014 0 c-2206 0 -3013
3 -3013 11 0 19 100 190 163 279 92 129 291 322 421 409 250 166 528 268 796
290 58 4 1115 8 2350 7 l2245 -1 6 -375z m10679 373 l62 -6 -7 -106 c-13 -204
-53 -334 -147 -478 -113 -174 -298 -310 -508 -375 l-75 -23 -3678 -3 c-4058
-2 -3743 -7 -3869 60 -73 39 -172 143 -206 216 -48 105 -52 139 -52 433 0 152
3 279 7 282 8 9 8390 9 8473 0z m-3799 -1621 c160 -54 281 -176 330 -332 77
-246 -67 -526 -316 -616 -115 -41 -396 -28 -644 31 -201 48 -442 148 -616 255
-177 108 -380 283 -510 440 -63 77 -175 232 -175 244 0 4 420 5 933 4 l932 -3
66 -23z"/>
<path d="M6870 15056 c-136 -37 -224 -151 -225 -291 0 -96 35 -166 130 -260
351 -347 878 -437 1321 -226 134 64 211 117 312 215 133 128 168 223 132 355
-33 125 -151 213 -285 214 -83 1 -148 -32 -248 -122 -119 -109 -203 -151 -340
-170 -59 -8 -94 -8 -154 3 -140 25 -225 69 -338 177 -101 96 -206 132 -305
105z"/>
<path d="M17653 14166 c-88 -29 -157 -89 -195 -171 -22 -49 -23 -58 -23 -360
l0 -310 28 -57 c52 -106 150 -168 267 -168 114 0 214 61 268 164 l27 51 0 320
c0 319 0 320 -24 369 -14 27 -40 65 -59 84 -71 71 -202 106 -289 78z"/>
<path d="M2675 13691 c-96 -25 -194 -116 -220 -204 -44 -150 15 -275 202 -426
162 -130 320 -203 525 -242 95 -18 136 -21 258 -16 164 6 272 29 424 93 187
78 401 253 461 377 25 52 27 65 23 135 -3 61 -11 89 -33 131 -53 97 -153 156
-265 156 -83 0 -134 -25 -235 -116 -144 -129 -230 -168 -385 -176 -173 -9
-289 34 -437 164 -48 42 -111 87 -140 100 -57 26 -132 36 -178 24z"/>
<path d="M5390 11917 c-137 -38 -224 -152 -225 -292 0 -101 31 -159 143 -267
97 -94 172 -148 280 -202 398 -200 879 -159 1232 105 171 128 255 244 254 354
0 179 -131 310 -309 309 -79 -1 -136 -31 -242 -126 -130 -118 -250 -170 -398
-170 -149 -1 -274 51 -415 173 -52 45 -113 90 -135 100 -56 25 -131 31 -185
16z"/>
</g>
</svg>
